<svg width="1440" height="1024" viewBox="0 0 1440 1024" fill="none" xmlns="http://www.w3.org/2000/svg">
<rect width="1440" height="1024" fill="#F5F5F5"/>
<rect width="1440" height="1024" fill="white"/>
<rect x="173" y="193" width="1134" height="502" rx="20" fill="black"/>
<path d="M244.818 264V240.727H252.682C254.508 240.727 256 241.057 257.159 241.716C258.326 242.367 259.189 243.25 259.75 244.364C260.311 245.477 260.591 246.72 260.591 248.091C260.591 249.462 260.311 250.708 259.75 251.83C259.197 252.951 258.341 253.845 257.182 254.511C256.023 255.17 254.538 255.5 252.727 255.5H247.091V253H252.636C253.886 253 254.89 252.784 255.648 252.352C256.405 251.92 256.955 251.337 257.295 250.602C257.644 249.86 257.818 249.023 257.818 248.091C257.818 247.159 257.644 246.326 257.295 245.591C256.955 244.856 256.402 244.28 255.636 243.864C254.871 243.439 253.856 243.227 252.591 243.227H247.636V264H244.818ZM267.449 240.727V264H264.767V240.727H267.449ZM277.497 264.409C276.391 264.409 275.387 264.201 274.486 263.784C273.584 263.36 272.868 262.75 272.338 261.955C271.808 261.152 271.543 260.182 271.543 259.045C271.543 258.045 271.74 257.235 272.134 256.614C272.527 255.985 273.054 255.492 273.713 255.136C274.372 254.78 275.099 254.515 275.895 254.341C276.698 254.159 277.505 254.015 278.315 253.909C279.376 253.773 280.236 253.67 280.895 253.602C281.562 253.527 282.046 253.402 282.349 253.227C282.66 253.053 282.815 252.75 282.815 252.318V252.227C282.815 251.106 282.509 250.235 281.895 249.614C281.289 248.992 280.368 248.682 279.134 248.682C277.853 248.682 276.849 248.962 276.122 249.523C275.395 250.083 274.884 250.682 274.588 251.318L272.043 250.409C272.497 249.348 273.103 248.523 273.861 247.932C274.626 247.333 275.459 246.917 276.361 246.682C277.27 246.439 278.164 246.318 279.043 246.318C279.603 246.318 280.247 246.386 280.974 246.523C281.709 246.652 282.418 246.92 283.099 247.33C283.789 247.739 284.361 248.356 284.815 249.182C285.27 250.008 285.497 251.114 285.497 252.5V264H282.815V261.636H282.679C282.497 262.015 282.194 262.42 281.77 262.852C281.346 263.284 280.781 263.652 280.077 263.955C279.372 264.258 278.512 264.409 277.497 264.409ZM277.906 262C278.967 262 279.861 261.792 280.588 261.375C281.323 260.958 281.876 260.42 282.247 259.761C282.626 259.102 282.815 258.409 282.815 257.682V255.227C282.702 255.364 282.452 255.489 282.065 255.602C281.687 255.708 281.247 255.803 280.747 255.886C280.255 255.962 279.774 256.03 279.304 256.091C278.842 256.144 278.467 256.189 278.179 256.227C277.482 256.318 276.83 256.466 276.224 256.67C275.626 256.867 275.141 257.167 274.77 257.568C274.406 257.962 274.224 258.5 274.224 259.182C274.224 260.114 274.569 260.818 275.259 261.295C275.955 261.765 276.838 262 277.906 262ZM291.494 270.545C291.04 270.545 290.634 270.508 290.278 270.432C289.922 270.364 289.676 270.295 289.54 270.227L290.222 267.864C290.873 268.03 291.449 268.091 291.949 268.045C292.449 268 292.892 267.777 293.278 267.375C293.672 266.981 294.032 266.341 294.358 265.455L294.858 264.091L288.403 246.545H291.312L296.131 260.455H296.312L301.131 246.545H304.04L296.631 266.545C296.297 267.447 295.884 268.193 295.392 268.784C294.9 269.383 294.328 269.826 293.676 270.114C293.032 270.402 292.305 270.545 291.494 270.545ZM312.185 264.409C311.079 264.409 310.075 264.201 309.173 263.784C308.272 263.36 307.556 262.75 307.026 261.955C306.495 261.152 306.23 260.182 306.23 259.045C306.23 258.045 306.427 257.235 306.821 256.614C307.215 255.985 307.741 255.492 308.401 255.136C309.06 254.78 309.787 254.515 310.582 254.341C311.385 254.159 312.192 254.015 313.003 253.909C314.063 253.773 314.923 253.67 315.582 253.602C316.249 253.527 316.734 253.402 317.037 253.227C317.348 253.053 317.503 252.75 317.503 252.318V252.227C317.503 251.106 317.196 250.235 316.582 249.614C315.976 248.992 315.056 248.682 313.821 248.682C312.541 248.682 311.537 248.962 310.81 249.523C310.082 250.083 309.571 250.682 309.276 251.318L306.73 250.409C307.185 249.348 307.791 248.523 308.548 247.932C309.313 247.333 310.147 246.917 311.048 246.682C311.957 246.439 312.851 246.318 313.73 246.318C314.291 246.318 314.935 246.386 315.662 246.523C316.397 246.652 317.105 246.92 317.787 247.33C318.476 247.739 319.048 248.356 319.503 249.182C319.957 250.008 320.185 251.114 320.185 252.5V264H317.503V261.636H317.366C317.185 262.015 316.882 262.42 316.457 262.852C316.033 263.284 315.469 263.652 314.764 263.955C314.06 264.258 313.2 264.409 312.185 264.409ZM312.594 262C313.654 262 314.548 261.792 315.276 261.375C316.01 260.958 316.563 260.42 316.935 259.761C317.313 259.102 317.503 258.409 317.503 257.682V255.227C317.389 255.364 317.139 255.489 316.753 255.602C316.374 255.708 315.935 255.803 315.435 255.886C314.942 255.962 314.461 256.03 313.991 256.091C313.529 256.144 313.154 256.189 312.866 256.227C312.17 256.318 311.518 256.466 310.912 256.67C310.313 256.867 309.829 257.167 309.457 257.568C309.094 257.962 308.912 258.5 308.912 259.182C308.912 260.114 309.257 260.818 309.946 261.295C310.643 261.765 311.526 262 312.594 262ZM325.443 264V240.727H328.125V249.318H328.352C328.549 249.015 328.822 248.629 329.17 248.159C329.527 247.682 330.034 247.258 330.693 246.886C331.36 246.508 332.261 246.318 333.398 246.318C334.867 246.318 336.163 246.686 337.284 247.42C338.405 248.155 339.28 249.197 339.909 250.545C340.538 251.894 340.852 253.485 340.852 255.318C340.852 257.167 340.538 258.769 339.909 260.125C339.28 261.473 338.409 262.519 337.295 263.261C336.182 263.996 334.898 264.364 333.443 264.364C332.322 264.364 331.424 264.178 330.75 263.807C330.076 263.428 329.557 263 329.193 262.523C328.83 262.038 328.549 261.636 328.352 261.318H328.034V264H325.443ZM328.08 255.273C328.08 256.591 328.273 257.754 328.659 258.761C329.045 259.761 329.61 260.545 330.352 261.114C331.095 261.674 332.004 261.955 333.08 261.955C334.201 261.955 335.136 261.659 335.886 261.068C336.644 260.47 337.212 259.667 337.591 258.659C337.977 257.644 338.17 256.515 338.17 255.273C338.17 254.045 337.981 252.939 337.602 251.955C337.231 250.962 336.667 250.178 335.909 249.602C335.159 249.019 334.216 248.727 333.08 248.727C331.989 248.727 331.072 249.004 330.33 249.557C329.587 250.102 329.027 250.867 328.648 251.852C328.269 252.83 328.08 253.97 328.08 255.273ZM347.636 240.727V264H344.955V240.727H347.636ZM359.866 264.364C358.185 264.364 356.734 263.992 355.514 263.25C354.302 262.5 353.366 261.455 352.707 260.114C352.056 258.765 351.73 257.197 351.73 255.409C351.73 253.621 352.056 252.045 352.707 250.682C353.366 249.311 354.283 248.242 355.457 247.477C356.639 246.705 358.018 246.318 359.594 246.318C360.503 246.318 361.401 246.47 362.287 246.773C363.173 247.076 363.98 247.568 364.707 248.25C365.435 248.924 366.014 249.818 366.446 250.932C366.878 252.045 367.094 253.417 367.094 255.045V256.182H353.639V253.864H364.366C364.366 252.879 364.17 252 363.776 251.227C363.389 250.455 362.836 249.845 362.116 249.398C361.404 248.951 360.563 248.727 359.594 248.727C358.526 248.727 357.601 248.992 356.821 249.523C356.048 250.045 355.454 250.727 355.037 251.568C354.62 252.409 354.412 253.311 354.412 254.273V255.818C354.412 257.136 354.639 258.254 355.094 259.17C355.556 260.08 356.196 260.773 357.014 261.25C357.832 261.72 358.783 261.955 359.866 261.955C360.571 261.955 361.207 261.856 361.776 261.659C362.351 261.455 362.848 261.152 363.264 260.75C363.681 260.341 364.003 259.833 364.23 259.227L366.821 259.955C366.548 260.833 366.09 261.606 365.446 262.273C364.802 262.932 364.007 263.447 363.06 263.818C362.113 264.182 361.048 264.364 359.866 264.364ZM380.537 264V240.727H388.401C390.226 240.727 391.719 241.057 392.878 241.716C394.045 242.367 394.908 243.25 395.469 244.364C396.029 245.477 396.31 246.72 396.31 248.091C396.31 249.462 396.029 250.708 395.469 251.83C394.916 252.951 394.06 253.845 392.901 254.511C391.741 255.17 390.257 255.5 388.446 255.5H382.81V253H388.355C389.605 253 390.609 252.784 391.366 252.352C392.124 251.92 392.673 251.337 393.014 250.602C393.363 249.86 393.537 249.023 393.537 248.091C393.537 247.159 393.363 246.326 393.014 245.591C392.673 244.856 392.12 244.28 391.355 243.864C390.59 243.439 389.575 243.227 388.31 243.227H383.355V264H380.537ZM403.668 240.727V264H400.849V240.727H403.668ZM410.273 264H407.318L415.864 240.727H418.773L427.318 264H424.364L417.409 244.409H417.227L410.273 264ZM411.364 254.909H423.273V257.409H411.364V254.909ZM449.398 240.727V264H446.67L433.989 245.727H433.761V264H430.943V240.727H433.67L446.398 259.045H446.625V240.727H449.398ZM474.673 252.364C474.673 254.818 474.23 256.939 473.344 258.727C472.457 260.515 471.241 261.894 469.696 262.864C468.151 263.833 466.385 264.318 464.401 264.318C462.416 264.318 460.651 263.833 459.105 262.864C457.56 261.894 456.344 260.515 455.457 258.727C454.571 256.939 454.128 254.818 454.128 252.364C454.128 249.909 454.571 247.788 455.457 246C456.344 244.212 457.56 242.833 459.105 241.864C460.651 240.894 462.416 240.409 464.401 240.409C466.385 240.409 468.151 240.894 469.696 241.864C471.241 242.833 472.457 244.212 473.344 246C474.23 247.788 474.673 249.909 474.673 252.364ZM471.946 252.364C471.946 250.348 471.609 248.648 470.935 247.261C470.268 245.875 469.363 244.826 468.219 244.114C467.082 243.402 465.81 243.045 464.401 243.045C462.991 243.045 461.715 243.402 460.571 244.114C459.435 244.826 458.529 245.875 457.855 247.261C457.188 248.648 456.855 250.348 456.855 252.364C456.855 254.379 457.188 256.08 457.855 257.466C458.529 258.852 459.435 259.902 460.571 260.614C461.715 261.326 462.991 261.682 464.401 261.682C465.81 261.682 467.082 261.326 468.219 260.614C469.363 259.902 470.268 258.852 470.935 257.466C471.609 256.08 471.946 254.379 471.946 252.364Z" fill="white"/>
<path d="M569.947 240.818L575.345 256.124H575.558L580.956 240.818H583.264L576.588 259H574.315L567.639 240.818H569.947ZM590.082 259.284C588.851 259.284 587.771 258.991 586.842 258.405C585.919 257.819 585.197 257 584.676 255.946C584.161 254.893 583.903 253.661 583.903 252.253C583.903 250.832 584.161 249.592 584.676 248.533C585.197 247.474 585.919 246.651 586.842 246.065C587.771 245.479 588.851 245.186 590.082 245.186C591.313 245.186 592.391 245.479 593.314 246.065C594.243 246.651 594.965 247.474 595.48 248.533C596.001 249.592 596.261 250.832 596.261 252.253C596.261 253.661 596.001 254.893 595.48 255.946C594.965 257 594.243 257.819 593.314 258.405C592.391 258.991 591.313 259.284 590.082 259.284ZM590.082 257.402C591.018 257.402 591.787 257.162 592.391 256.683C592.994 256.203 593.441 255.573 593.731 254.792C594.021 254.011 594.166 253.164 594.166 252.253C594.166 251.341 594.021 250.492 593.731 249.705C593.441 248.918 592.994 248.281 592.391 247.796C591.787 247.311 591.018 247.068 590.082 247.068C589.147 247.068 588.378 247.311 587.774 247.796C587.17 248.281 586.724 248.918 586.434 249.705C586.144 250.492 585.999 251.341 585.999 252.253C585.999 253.164 586.144 254.011 586.434 254.792C586.724 255.573 587.17 256.203 587.774 256.683C588.378 257.162 589.147 257.402 590.082 257.402ZM601.555 240.818V259H599.46V240.818H601.555ZM613.986 253.425V245.364H616.081V259H613.986V256.692H613.844C613.524 257.384 613.027 257.973 612.352 258.458C611.678 258.938 610.825 259.178 609.796 259.178C608.943 259.178 608.186 258.991 607.523 258.618C606.86 258.239 606.339 257.671 605.96 256.914C605.582 256.15 605.392 255.188 605.392 254.028V245.364H607.487V253.886C607.487 254.881 607.766 255.674 608.322 256.266C608.884 256.857 609.6 257.153 610.47 257.153C610.991 257.153 611.521 257.02 612.059 256.754C612.604 256.488 613.06 256.079 613.427 255.529C613.8 254.978 613.986 254.277 613.986 253.425ZM619.919 259V245.364H621.943V247.494H622.12C622.404 246.766 622.863 246.201 623.496 245.799C624.13 245.39 624.89 245.186 625.778 245.186C626.678 245.186 627.426 245.39 628.024 245.799C628.628 246.201 629.098 246.766 629.436 247.494H629.578C629.927 246.79 630.451 246.231 631.149 245.816C631.847 245.396 632.685 245.186 633.661 245.186C634.881 245.186 635.878 245.568 636.653 246.331C637.429 247.089 637.816 248.27 637.816 249.874V259H635.721V249.874C635.721 248.867 635.446 248.148 634.896 247.716C634.345 247.284 633.697 247.068 632.951 247.068C631.992 247.068 631.25 247.358 630.723 247.938C630.196 248.512 629.933 249.24 629.933 250.122V259H627.802V249.661C627.802 248.885 627.551 248.261 627.047 247.787C626.544 247.308 625.896 247.068 625.103 247.068C624.559 247.068 624.05 247.213 623.576 247.503C623.109 247.793 622.73 248.196 622.44 248.711C622.156 249.22 622.014 249.808 622.014 250.477V259H619.919ZM647.364 259.284C646.051 259.284 644.917 258.994 643.964 258.414C643.017 257.828 642.286 257.011 641.771 255.964C641.262 254.91 641.008 253.685 641.008 252.288C641.008 250.892 641.262 249.661 641.771 248.595C642.286 247.524 643.002 246.689 643.92 246.092C644.843 245.488 645.92 245.186 647.151 245.186C647.862 245.186 648.563 245.304 649.255 245.541C649.948 245.778 650.578 246.163 651.146 246.695C651.715 247.222 652.167 247.92 652.505 248.79C652.842 249.661 653.011 250.732 653.011 252.004V252.892H642.499V251.081H650.88C650.88 250.312 650.726 249.625 650.418 249.021C650.117 248.418 649.685 247.941 649.122 247.592C648.566 247.243 647.909 247.068 647.151 247.068C646.317 247.068 645.595 247.275 644.985 247.69C644.381 248.098 643.917 248.631 643.591 249.288C643.266 249.945 643.103 250.649 643.103 251.401V252.608C643.103 253.638 643.281 254.511 643.636 255.227C643.997 255.937 644.497 256.479 645.136 256.852C645.775 257.219 646.518 257.402 647.364 257.402C647.915 257.402 648.412 257.325 648.856 257.171C649.306 257.011 649.693 256.775 650.019 256.461C650.344 256.141 650.596 255.745 650.774 255.271L652.798 255.839C652.585 256.526 652.227 257.13 651.723 257.651C651.22 258.165 650.599 258.568 649.859 258.858C649.119 259.142 648.288 259.284 647.364 259.284Z" fill="white"/>
<path d="M748.667 252C748.667 259.364 754.636 265.333 762 265.333C769.364 265.333 775.333 259.364 775.333 252C775.333 244.636 769.364 238.667 762 238.667C754.636 238.667 748.667 244.636 748.667 252ZM679 254.5H762V249.5H679V254.5Z" fill="white"/>
<path d="M775 252H858" stroke="#5E5959" stroke-width="5"/>
<path d="M967.145 243.364C967.038 242.464 966.606 241.766 965.849 241.268C965.091 240.771 964.162 240.523 963.061 240.523C962.256 240.523 961.552 240.653 960.948 240.913C960.35 241.174 959.883 241.532 959.545 241.988C959.214 242.443 959.048 242.961 959.048 243.541C959.048 244.027 959.164 244.444 959.395 244.793C959.631 245.136 959.933 245.423 960.3 245.654C960.667 245.879 961.052 246.065 961.454 246.213C961.857 246.355 962.227 246.471 962.564 246.56L964.411 247.057C964.884 247.181 965.411 247.353 965.991 247.572C966.577 247.791 967.136 248.09 967.669 248.468C968.207 248.841 968.651 249.321 969 249.907C969.35 250.493 969.524 251.212 969.524 252.064C969.524 253.046 969.267 253.934 968.752 254.727C968.243 255.52 967.497 256.151 966.515 256.618C965.538 257.086 964.351 257.32 962.955 257.32C961.652 257.32 960.525 257.109 959.572 256.689C958.625 256.269 957.879 255.683 957.335 254.931C956.796 254.18 956.491 253.307 956.42 252.312H958.693C958.752 252.999 958.983 253.567 959.386 254.017C959.794 254.461 960.309 254.792 960.93 255.011C961.558 255.224 962.232 255.331 962.955 255.331C963.795 255.331 964.55 255.195 965.218 254.923C965.887 254.644 966.417 254.26 966.808 253.768C967.198 253.271 967.393 252.691 967.393 252.028C967.393 251.425 967.225 250.933 966.887 250.555C966.55 250.176 966.106 249.868 965.556 249.631C965.005 249.395 964.411 249.187 963.771 249.01L961.534 248.371C960.114 247.962 958.989 247.379 958.161 246.622C957.332 245.864 956.918 244.873 956.918 243.648C956.918 242.63 957.193 241.742 957.743 240.984C958.3 240.221 959.045 239.629 959.98 239.209C960.922 238.783 961.972 238.57 963.132 238.57C964.304 238.57 965.346 238.78 966.257 239.2C967.169 239.614 967.891 240.182 968.423 240.904C968.962 241.627 969.246 242.446 969.276 243.364H967.145ZM974.955 248.797V257H972.86V238.818H974.955V245.494H975.133C975.452 244.79 975.932 244.231 976.571 243.816C977.216 243.396 978.074 243.186 979.146 243.186C980.075 243.186 980.889 243.373 981.587 243.745C982.285 244.112 982.827 244.678 983.212 245.441C983.602 246.199 983.797 247.163 983.797 248.335V257H981.702V248.477C981.702 247.394 981.421 246.557 980.859 245.965C980.303 245.367 979.53 245.068 978.542 245.068C977.855 245.068 977.24 245.213 976.695 245.503C976.157 245.793 975.73 246.216 975.417 246.773C975.109 247.329 974.955 248.004 974.955 248.797ZM993.17 257.284C991.939 257.284 990.859 256.991 989.93 256.405C989.007 255.819 988.285 255 987.764 253.946C987.249 252.893 986.991 251.661 986.991 250.253C986.991 248.832 987.249 247.592 987.764 246.533C988.285 245.474 989.007 244.651 989.93 244.065C990.859 243.479 991.939 243.186 993.17 243.186C994.401 243.186 995.479 243.479 996.402 244.065C997.331 244.651 998.053 245.474 998.568 246.533C999.089 247.592 999.349 248.832 999.349 250.253C999.349 251.661 999.089 252.893 998.568 253.946C998.053 255 997.331 255.819 996.402 256.405C995.479 256.991 994.401 257.284 993.17 257.284ZM993.17 255.402C994.105 255.402 994.875 255.162 995.479 254.683C996.082 254.203 996.529 253.573 996.819 252.792C997.109 252.011 997.254 251.164 997.254 250.253C997.254 249.341 997.109 248.492 996.819 247.705C996.529 246.918 996.082 246.281 995.479 245.796C994.875 245.311 994.105 245.068 993.17 245.068C992.235 245.068 991.466 245.311 990.862 245.796C990.258 246.281 989.811 246.918 989.521 247.705C989.231 248.492 989.086 249.341 989.086 250.253C989.086 251.164 989.231 252.011 989.521 252.792C989.811 253.573 990.258 254.203 990.862 254.683C991.466 255.162 992.235 255.402 993.17 255.402ZM1005.17 257L1001.02 243.364H1003.22L1006.17 253.804H1006.31L1009.22 243.364H1011.46L1014.34 253.768H1014.48L1017.42 243.364H1019.63L1015.47 257H1013.41L1010.43 246.524H1010.22L1007.23 257H1005.17ZM1029.71 257V238.818H1031.91V247.838H1032.13L1040.29 238.818H1043.17L1035.54 247.021L1043.17 257H1040.51L1034.19 248.548L1031.91 251.105V257H1029.71ZM1050.45 257.284C1049.14 257.284 1048.01 256.994 1047.05 256.414C1046.11 255.828 1045.37 255.011 1044.86 253.964C1044.35 252.91 1044.1 251.685 1044.1 250.288C1044.1 248.892 1044.35 247.661 1044.86 246.595C1045.37 245.524 1046.09 244.689 1047.01 244.092C1047.93 243.488 1049.01 243.186 1050.24 243.186C1050.95 243.186 1051.65 243.304 1052.34 243.541C1053.04 243.778 1053.67 244.163 1054.23 244.695C1054.8 245.222 1055.26 245.92 1055.59 246.79C1055.93 247.661 1056.1 248.732 1056.1 250.004V250.892H1045.59V249.081H1053.97C1053.97 248.312 1053.81 247.625 1053.51 247.021C1053.2 246.418 1052.77 245.941 1052.21 245.592C1051.65 245.243 1051 245.068 1050.24 245.068C1049.4 245.068 1048.68 245.275 1048.07 245.69C1047.47 246.098 1047 246.631 1046.68 247.288C1046.35 247.945 1046.19 248.649 1046.19 249.401V250.608C1046.19 251.638 1046.37 252.511 1046.72 253.227C1047.08 253.937 1047.58 254.479 1048.22 254.852C1048.86 255.219 1049.61 255.402 1050.45 255.402C1051 255.402 1051.5 255.325 1051.94 255.171C1052.39 255.011 1052.78 254.775 1053.11 254.461C1053.43 254.141 1053.68 253.745 1053.86 253.271L1055.89 253.839C1055.67 254.526 1055.31 255.13 1054.81 255.651C1054.31 256.165 1053.69 256.568 1052.95 256.858C1052.21 257.142 1051.38 257.284 1050.45 257.284ZM1060.22 262.114C1059.87 262.114 1059.55 262.084 1059.27 262.025C1058.99 261.972 1058.8 261.918 1058.69 261.865L1059.23 260.018C1059.73 260.149 1060.18 260.196 1060.58 260.161C1060.97 260.125 1061.31 259.95 1061.61 259.637C1061.92 259.329 1062.2 258.829 1062.46 258.136L1062.85 257.071L1057.81 243.364H1060.08L1063.84 254.23H1063.98L1067.75 243.364H1070.02L1064.23 258.989C1063.97 259.693 1063.65 260.276 1063.27 260.738C1062.88 261.205 1062.43 261.551 1061.92 261.776C1061.42 262.001 1060.85 262.114 1060.22 262.114ZM1082.45 246.418L1080.56 246.95C1080.45 246.637 1080.27 246.332 1080.04 246.036C1079.82 245.734 1079.51 245.485 1079.12 245.29C1078.73 245.095 1078.23 244.997 1077.62 244.997C1076.78 244.997 1076.09 245.19 1075.53 245.574C1074.98 245.953 1074.7 246.435 1074.7 247.021C1074.7 247.542 1074.89 247.953 1075.27 248.255C1075.65 248.557 1076.24 248.809 1077.05 249.01L1079.07 249.507C1080.29 249.803 1081.2 250.256 1081.8 250.865C1082.4 251.469 1082.69 252.247 1082.69 253.2C1082.69 253.982 1082.47 254.68 1082.02 255.295C1081.58 255.911 1080.95 256.396 1080.16 256.751C1079.36 257.107 1078.43 257.284 1077.37 257.284C1075.98 257.284 1074.83 256.982 1073.91 256.379C1073 255.775 1072.43 254.893 1072.18 253.733L1074.17 253.236C1074.36 253.97 1074.72 254.52 1075.25 254.887C1075.78 255.254 1076.47 255.438 1077.33 255.438C1078.31 255.438 1079.08 255.23 1079.66 254.816C1080.24 254.396 1080.53 253.893 1080.53 253.307C1080.53 252.833 1080.36 252.437 1080.03 252.117C1079.7 251.792 1079.19 251.549 1078.5 251.389L1076.23 250.857C1074.98 250.561 1074.07 250.102 1073.48 249.48C1072.9 248.853 1072.61 248.069 1072.61 247.128C1072.61 246.358 1072.83 245.678 1073.26 245.086C1073.7 244.494 1074.29 244.029 1075.04 243.692C1075.8 243.355 1076.66 243.186 1077.62 243.186C1078.97 243.186 1080.03 243.482 1080.79 244.074C1081.57 244.666 1082.12 245.447 1082.45 246.418Z" fill="white"/>
<rect x="1115" y="226" width="93" height="39" rx="19.5" fill="#837A7A"/>
<circle cx="1188.5" cy="245.5" r="17.5" fill="#D9D9D9"/>
<rect x="545" y="350" width="93" height="290" rx="15" fill="#D9D9D9"/>
<rect x="642" y="350" width="93" height="290" rx="15" fill="#D9D9D9"/>
<rect x="739" y="350" width="93" height="290" rx="15" fill="#D9D9D9"/>
<rect x="836" y="350" width="93" height="290" rx="15" fill="#D9D9D9"/>
<rect x="933" y="350" width="93" height="290" rx="15" fill="#D9D9D9"/>
<rect x="1030" y="350" width="93" height="290" rx="15" fill="#D9D9D9"/>
<rect x="1127" y="350" width="93" height="290" rx="15" fill="#D9D9D9"/>
<path d="M608 350H667V537C667 542.523 662.523 547 657 547H618C612.477 547 608 542.523 608 537V350Z" fill="black"/>
<path d="M706 350H765V537C765 542.523 760.523 547 755 547H716C710.477 547 706 542.523 706 537V350Z" fill="black"/>
<path d="M806 350H865V537C865 542.523 860.523 547 855 547H816C810.477 547 806 542.523 806 537V350Z" fill="black"/>
<path d="M631.207 505.771V503.818H644.844V505.771H639.126V522H636.925V505.771H631.207Z" fill="white"/>
<path d="M727.639 508.818H730.161L735.203 517.305H735.416L740.459 508.818H742.98L736.411 519.507V527H734.209V519.507L727.639 508.818Z" fill="white"/>
<path d="M1000 350H1059V537C1059 542.523 1054.52 547 1049 547H1010C1004.48 547 1000 542.523 1000 537V350Z" fill="black"/>
<path d="M1093 350H1152V537C1152 542.523 1147.52 547 1142 547H1103C1097.48 547 1093 542.523 1093 537V350Z" fill="black"/>
<path d="M840.134 508.818H842.335V520.857C842.335 522.099 842.042 523.209 841.456 524.186C840.876 525.156 840.057 525.923 838.997 526.485C837.938 527.041 836.695 527.32 835.268 527.32C833.842 527.32 832.599 527.041 831.54 526.485C830.48 525.923 829.658 525.156 829.072 524.186C828.492 523.209 828.202 522.099 828.202 520.857V508.818H830.403V520.679C830.403 521.567 830.599 522.357 830.989 523.049C831.38 523.736 831.936 524.277 832.658 524.674C833.386 525.065 834.256 525.26 835.268 525.26C836.281 525.26 837.151 525.065 837.879 524.674C838.607 524.277 839.163 523.736 839.548 523.049C839.938 522.357 840.134 521.567 840.134 520.679V508.818Z" fill="white"/>
<path d="M1035.54 518.909C1035.54 520.827 1035.2 522.484 1034.5 523.881C1033.81 525.277 1032.86 526.355 1031.65 527.112C1030.45 527.87 1029.07 528.249 1027.52 528.249C1025.97 528.249 1024.59 527.87 1023.38 527.112C1022.17 526.355 1021.22 525.277 1020.53 523.881C1019.84 522.484 1019.49 520.827 1019.49 518.909C1019.49 516.991 1019.84 515.334 1020.53 513.938C1021.22 512.541 1022.17 511.464 1023.38 510.706C1024.59 509.948 1025.97 509.57 1027.52 509.57C1029.07 509.57 1030.45 509.948 1031.65 510.706C1032.86 511.464 1033.81 512.541 1034.5 513.938C1035.2 515.334 1035.54 516.991 1035.54 518.909ZM1033.41 518.909C1033.41 517.335 1033.15 516.006 1032.62 514.923C1032.1 513.84 1031.39 513.02 1030.5 512.464C1029.61 511.907 1028.62 511.629 1027.52 511.629C1026.42 511.629 1025.42 511.907 1024.53 512.464C1023.64 513.02 1022.93 513.84 1022.4 514.923C1021.88 516.006 1021.62 517.335 1021.62 518.909C1021.62 520.483 1021.88 521.812 1022.4 522.895C1022.93 523.978 1023.64 524.798 1024.53 525.354C1025.42 525.911 1026.42 526.189 1027.52 526.189C1028.62 526.189 1029.61 525.911 1030.5 525.354C1031.39 524.798 1032.1 523.978 1032.62 522.895C1033.15 521.812 1033.41 520.483 1033.41 518.909Z" fill="white"/>
<path d="M1121.2 528V509.818H1127.35C1128.77 509.818 1129.94 510.076 1130.84 510.591C1131.75 511.1 1132.43 511.789 1132.87 512.659C1133.31 513.529 1133.52 514.5 1133.52 515.571C1133.52 516.642 1133.31 517.616 1132.87 518.492C1132.44 519.368 1131.77 520.066 1130.86 520.587C1129.96 521.102 1128.8 521.359 1127.38 521.359H1122.98V519.406H1127.31C1128.29 519.406 1129.07 519.238 1129.66 518.9C1130.25 518.563 1130.68 518.107 1130.95 517.533C1131.22 516.953 1131.36 516.299 1131.36 515.571C1131.36 514.843 1131.22 514.192 1130.95 513.618C1130.68 513.044 1130.25 512.594 1129.65 512.268C1129.06 511.937 1128.26 511.771 1127.27 511.771H1123.4V528H1121.2Z" fill="white"/>
<path d="M584.202 616V597.818H595.104V599.771H586.403V605.915H594.287V607.868H586.403V616H584.202Z" fill="black"/>
<path d="M684.631 603.5C684.435 602.902 684.178 602.367 683.858 601.893C683.545 601.414 683.169 601.005 682.731 600.668C682.299 600.331 681.808 600.073 681.257 599.896C680.707 599.718 680.103 599.629 679.446 599.629C678.369 599.629 677.389 599.907 676.507 600.464C675.626 601.02 674.924 601.84 674.403 602.923C673.883 604.006 673.622 605.335 673.622 606.909C673.622 608.483 673.886 609.812 674.412 610.895C674.939 611.978 675.652 612.798 676.552 613.354C677.451 613.911 678.464 614.189 679.588 614.189C680.63 614.189 681.547 613.967 682.34 613.523C683.139 613.073 683.761 612.44 684.205 611.623C684.654 610.801 684.879 609.833 684.879 608.72L685.554 608.862H680.085V606.909H687.01V608.862C687.01 610.36 686.69 611.662 686.051 612.768C685.418 613.875 684.542 614.733 683.423 615.343C682.311 615.947 681.032 616.249 679.588 616.249C677.978 616.249 676.564 615.87 675.344 615.112C674.131 614.355 673.184 613.277 672.504 611.881C671.829 610.484 671.491 608.827 671.491 606.909C671.491 605.471 671.684 604.178 672.069 603.029C672.459 601.875 673.01 600.893 673.72 600.082C674.43 599.271 675.27 598.65 676.241 598.218C677.212 597.786 678.28 597.57 679.446 597.57C680.405 597.57 681.299 597.715 682.127 598.005C682.962 598.289 683.704 598.694 684.355 599.221C685.012 599.742 685.56 600.366 685.998 601.094C686.436 601.816 686.738 602.618 686.903 603.5H684.631Z" fill="black"/>
<path d="M777.202 616V597.818H779.403V605.915H789.098V597.818H791.3V616H789.098V607.868H779.403V616H777.202Z" fill="black"/>
<path d="M885.162 597.818H887.364V610.815C887.364 611.975 887.151 612.961 886.724 613.772C886.298 614.583 885.698 615.198 884.922 615.618C884.147 616.038 883.232 616.249 882.179 616.249C881.185 616.249 880.3 616.068 879.525 615.707C878.749 615.34 878.14 614.819 877.696 614.145C877.252 613.47 877.03 612.668 877.03 611.739H879.196C879.196 612.254 879.323 612.703 879.578 613.088C879.838 613.467 880.193 613.763 880.643 613.976C881.093 614.189 881.605 614.295 882.179 614.295C882.812 614.295 883.351 614.162 883.795 613.896C884.239 613.63 884.576 613.239 884.807 612.724C885.044 612.203 885.162 611.567 885.162 610.815V597.818Z" fill="black"/>
<path d="M966.202 616V597.818H968.403V606.838H968.616L976.784 597.818H979.661L972.026 606.021L979.661 616H976.997L970.676 607.548L968.403 610.105V616H966.202Z" fill="black"/>
<path d="M1072.2 616V597.818H1074.4V614.047H1082.86V616H1072.2Z" fill="black"/>
<path d="M1170.04 604.514L1169.9 605.473C1169.8 606.148 1169.65 606.87 1169.44 607.639C1169.24 608.409 1169.03 609.134 1168.81 609.814C1168.59 610.495 1168.41 611.036 1168.27 611.439H1166.67C1166.75 611.06 1166.85 610.56 1166.97 609.939C1167.1 609.317 1167.22 608.622 1167.34 607.852C1167.47 607.089 1167.58 606.308 1167.66 605.509L1167.77 604.514H1170.04ZM1168.76 597.021C1168.33 597.021 1167.95 596.864 1167.64 596.551C1167.32 596.237 1167.17 595.861 1167.17 595.423C1167.17 594.985 1167.32 594.609 1167.64 594.296C1167.95 593.982 1168.33 593.825 1168.76 593.825C1169.2 593.825 1169.58 593.982 1169.89 594.296C1170.21 594.609 1170.36 594.985 1170.36 595.423C1170.36 595.713 1170.29 595.98 1170.14 596.222C1170 596.465 1169.81 596.66 1169.56 596.808C1169.33 596.95 1169.06 597.021 1168.76 597.021Z" fill="black"/>
<rect x="254" y="350" width="93" height="290" rx="15" fill="#D9D9D9"/>
<rect x="351" y="350" width="93" height="290" rx="15" fill="#D9D9D9"/>
<rect x="448" y="350" width="93" height="290" rx="15" fill="#D9D9D9"/>
<path d="M492.812 616H487.202V597.818H493.061C494.825 597.818 496.334 598.182 497.589 598.91C498.844 599.632 499.805 600.671 500.474 602.026C501.143 603.376 501.477 604.991 501.477 606.874C501.477 608.768 501.14 610.398 500.465 611.765C499.79 613.127 498.808 614.174 497.518 614.908C496.228 615.636 494.659 616 492.812 616ZM489.403 614.047H492.67C494.174 614.047 495.42 613.757 496.408 613.177C497.396 612.597 498.133 611.771 498.619 610.7C499.104 609.629 499.347 608.353 499.347 606.874C499.347 605.406 499.107 604.142 498.627 603.083C498.148 602.017 497.432 601.201 496.479 600.632C495.526 600.058 494.339 599.771 492.919 599.771H489.403V614.047Z" fill="black"/>
<path d="M322 350H381V537C381 542.523 376.523 547 371 547H332C326.477 547 322 542.523 322 537V350Z" fill="black"/>
<path d="M419 350H478V537C478 542.523 473.523 547 468 547H429C423.477 547 419 542.523 419 537V350Z" fill="black"/>
<path d="M344.504 527L339.533 508.818H341.77L345.57 523.626H345.747L349.618 508.818H352.104L355.974 523.626H356.152L359.952 508.818H362.189L357.217 527H354.945L350.932 512.511H350.79L346.777 527H344.504Z" fill="white"/>
<path d="M439.202 527V508.818H450.175V510.771H441.403V516.915H449.607V518.868H441.403V525.047H450.317V527H439.202Z" fill="white"/>
<path d="M401.145 602.364C401.038 601.464 400.606 600.766 399.849 600.268C399.091 599.771 398.162 599.523 397.061 599.523C396.256 599.523 395.552 599.653 394.948 599.913C394.35 600.174 393.883 600.532 393.545 600.988C393.214 601.443 393.048 601.961 393.048 602.541C393.048 603.027 393.164 603.444 393.395 603.793C393.631 604.136 393.933 604.423 394.3 604.654C394.667 604.879 395.052 605.065 395.454 605.213C395.857 605.355 396.227 605.471 396.564 605.56L398.411 606.057C398.884 606.181 399.411 606.353 399.991 606.572C400.577 606.791 401.136 607.09 401.669 607.468C402.207 607.841 402.651 608.321 403 608.907C403.35 609.493 403.524 610.212 403.524 611.064C403.524 612.046 403.267 612.934 402.752 613.727C402.243 614.52 401.497 615.151 400.515 615.618C399.538 616.086 398.351 616.32 396.955 616.32C395.652 616.32 394.525 616.109 393.572 615.689C392.625 615.269 391.879 614.683 391.335 613.931C390.796 613.18 390.491 612.307 390.42 611.312H392.693C392.752 611.999 392.983 612.567 393.386 613.017C393.794 613.461 394.309 613.792 394.93 614.011C395.558 614.224 396.232 614.331 396.955 614.331C397.795 614.331 398.55 614.195 399.218 613.923C399.887 613.644 400.417 613.26 400.808 612.768C401.198 612.271 401.393 611.691 401.393 611.028C401.393 610.425 401.225 609.933 400.887 609.555C400.55 609.176 400.106 608.868 399.556 608.631C399.005 608.395 398.411 608.187 397.771 608.01L395.534 607.371C394.114 606.962 392.989 606.379 392.161 605.622C391.332 604.864 390.918 603.873 390.918 602.648C390.918 601.63 391.193 600.742 391.743 599.984C392.3 599.221 393.045 598.629 393.98 598.209C394.922 597.783 395.972 597.57 397.132 597.57C398.304 597.57 399.346 597.78 400.257 598.2C401.169 598.614 401.891 599.182 402.423 599.904C402.962 600.627 403.246 601.446 403.276 602.364H401.145Z" fill="black"/>
<path d="M294.947 616H292.639L299.315 597.818H301.588L308.264 616H305.956L300.523 600.695H300.381L294.947 616ZM295.8 608.898H305.104V610.851H295.8V608.898Z" fill="black"/>
</svg>
